# xmcd CD database file
#
# Track frame offsets:
#	150
#	11887
#	37588
#	82798
#	101482
#	131397
#	169476
#	190109
#	220042
#	249800
#	285465
#	310295
#
# Disc length: 4530 seconds
#
# Revision: 0
# Processed by: cddbd v1.4PL0 Copyright (c) Steve Scherf et al.
# Submitted via: CDex 1.51
#
DISCID=8f11b00c
DTITLE=Various Artist - JazzCD.no 2
DYEAR=2002
DGENRE=Jazz
TTITLE0=Sanmon - Main Entrance
TTITLE1=A Prayer Before Tea
TTITLE2=4.3
TTITLE3=Arched Shape
TTITLE4=Frozen
TTITLE5=04
TTITLE6=Kitty Wu
TTITLE7=Dance This Part 1
TTITLE8=Weaving
TTITLE9=First There Was Jazz 2
TTITLE10=The String Thing
TTITLE11=PVC
EXTD=YEAR: 2002
EXTT0=
EXTT1=
EXTT2=
EXTT3=
EXTT4=
EXTT5=
EXTT6=
EXTT7=
EXTT8=
EXTT9=
EXTT10=
EXTT11=
PLAYORDER=
